<svg width="18" height="18" viewBox="0 0 18 18" fill="none" xmlns="http://www.w3.org/2000/svg">
<g clip-path="url(#clip0_9_17397)">
<path d="M13.275 8.5875H5.4V10.1625H13.275V8.5875ZM14.85 3.075H14.0625V1.5H12.4875V3.075H6.1875V1.5H4.6125V3.075H3.825C2.95087 3.075 2.25787 3.78375 2.25787 4.65L2.25 15.675C2.25 16.5413 2.95087 17.25 3.825 17.25H14.85C15.7162 17.25 16.425 16.5413 16.425 15.675V4.65C16.425 3.78375 15.7162 3.075 14.85 3.075ZM14.85 15.675H3.825V7.0125H14.85V15.675ZM10.9125 11.7375H5.4V13.3125H10.9125V11.7375Z" fill="#EAEAEB"/>
</g>
<defs>
<clipPath id="clip0_9_17397">
<rect width="18" height="18" fill="white"/>
</clipPath>
</defs>
</svg>
